<svg width="171" height="172" viewBox="0 0 171 172" fill="none" xmlns="http://www.w3.org/2000/svg">
<g filter="url(#filter0_bd_0_1)">
<rect x="20.198" y="84.5799" width="40" height="63.8928" rx="20" transform="rotate(-90 20.198 84.5799)" fill="#006940"/>
<rect x="44.1858" y="21.2956" width="40" height="63.2224" rx="20" fill="#006940"/>
</g>
<g filter="url(#filter1_bd_0_1)">
<rect x="86.9629" y="21" width="40" height="63.8928" rx="20" fill="#006940"/>
<rect x="150.247" y="44.9878" width="40" height="63.2224" rx="20" transform="rotate(90 150.247 44.9878)" fill="#006940"/>
</g>
<g filter="url(#filter2_bd_0_1)">
<rect width="40" height="63.8928" rx="20" transform="matrix(1 0 0 -1 86.9629 151.599)" fill="#006940"/>
<rect width="40" height="63.2224" rx="20" transform="matrix(0 -1 -1 0 150.247 127.611)" fill="#006940"/>
</g>
<g filter="url(#filter3_bd_0_1)">
<rect width="40" height="63.8928" rx="20" transform="matrix(0 1 1 0 20 87.9629)" fill="#006940"/>
<rect width="40" height="63.2224" rx="20" transform="matrix(1 0 0 -1 43.9878 151.247)" fill="#006940"/>
</g>
<g filter="url(#filter4_bd_0_1)">
<line x1="45.7071" y1="46" x2="87.4264" y2="87.7193" stroke="white" stroke-linecap="round"/>
</g>
<g filter="url(#filter5_bd_0_1)">
<line x1="125.037" y1="46.7061" x2="85.5682" y2="90.5605" stroke="white" stroke-linecap="round"/>
</g>
<g filter="url(#filter6_bd_0_1)">
<line x1="126.326" y1="126.712" x2="87.703" y2="82.1113" stroke="white" stroke-linecap="round"/>
</g>
<g filter="url(#filter7_bd_0_1)">
<line x1="45.0135" y1="126.611" x2="87.5229" y2="85.6971" stroke="white" stroke-linecap="round"/>
</g>
<g filter="url(#filter8_bd_0_1)">
<circle cx="84" cy="85" r="25" fill="#006940"/>
</g>
<g filter="url(#filter9_bd_0_1)">
<path d="M102.549 84.6416C102.549 86.3018 102.329 87.9049 101.89 89.4512C101.466 90.9811 100.864 92.4215 100.083 93.7725C99.3018 95.1071 98.3577 96.3278 97.251 97.4346C96.1442 98.5413 94.9235 99.4935 93.5889 100.291C92.2542 101.072 90.8138 101.674 89.2676 102.098C87.7214 102.537 86.1182 102.757 84.458 102.757C82.7979 102.757 81.1947 102.537 79.6484 102.098C78.1185 101.674 76.6781 101.072 75.3271 100.291C73.9925 99.4935 72.7718 98.5413 71.665 97.4346C70.5583 96.3278 69.6061 95.1071 68.8086 93.7725C68.0273 92.4215 67.417 90.9811 66.9775 89.4512C66.5544 87.9049 66.3428 86.3018 66.3428 84.6416C66.3428 82.9814 66.5544 81.3783 66.9775 79.832C67.417 78.2858 68.0273 76.8454 68.8086 75.5107C69.6061 74.1761 70.5583 72.9554 71.665 71.8486C72.7718 70.7419 73.9925 69.7979 75.3271 69.0166C76.6781 68.2354 78.1185 67.6331 79.6484 67.21C81.1947 66.7705 82.7979 66.5508 84.458 66.5508C86.1182 66.5508 87.7214 66.7705 89.2676 67.21C90.8138 67.6331 92.2542 68.2354 93.5889 69.0166C94.9235 69.7979 96.1442 70.7419 97.251 71.8486C98.3577 72.9554 99.3018 74.1761 100.083 75.5107C100.864 76.8454 101.466 78.2858 101.89 79.832C102.329 81.3783 102.549 82.9814 102.549 84.6416ZM95.5908 84.6416C95.5908 83.1117 95.2979 81.6712 94.7119 80.3203C94.126 78.9531 93.3285 77.7731 92.3193 76.7803C91.3265 75.7712 90.1465 74.9736 88.7793 74.3877C87.4284 73.8018 85.988 73.5088 84.458 73.5088C82.9118 73.5088 81.4632 73.8018 80.1123 74.3877C78.7614 74.9736 77.5814 75.7712 76.5723 76.7803C75.5632 77.7731 74.7656 78.9531 74.1797 80.3203C73.5938 81.6712 73.3008 83.1117 73.3008 84.6416C73.3008 86.1715 73.5938 87.612 74.1797 88.9629C74.7656 90.2975 75.5632 91.4694 76.5723 92.4785C77.5814 93.4876 78.7614 94.2852 80.1123 94.8711C81.4632 95.457 82.9118 95.75 84.458 95.75C85.988 95.75 87.4284 95.457 88.7793 94.8711C90.1465 94.2852 91.3265 93.4876 92.3193 92.4785C93.3285 91.4694 94.126 90.2975 94.7119 88.9629C95.2979 87.612 95.5908 86.1715 95.5908 84.6416Z" fill="#F1F1F1"/>
</g>
<defs>
<filter id="filter0_bd_0_1" x="16.198" y="17.2956" width="71.9878" height="75.2843" filterUnits="userSpaceOnUse" color-interpolation-filters="sRGB">
<feFlood flood-opacity="0" result="BackgroundImageFix"/>
<feGaussianBlur in="BackgroundImage" stdDeviation="2"/>
<feComposite in2="SourceAlpha" operator="in" result="effect1_backgroundBlur_0_1"/>
<feColorMatrix in="SourceAlpha" type="matrix" values="0 0 0 0 0 0 0 0 0 0 0 0 0 0 0 0 0 0 127 0" result="hardAlpha"/>
<feOffset dy="4"/>
<feGaussianBlur stdDeviation="2"/>
<feComposite in2="hardAlpha" operator="out"/>
<feColorMatrix type="matrix" values="0 0 0 0 0 0 0 0 0 0 0 0 0 0 0 0 0 0 0.25 0"/>
<feBlend mode="normal" in2="effect1_backgroundBlur_0_1" result="effect2_dropShadow_0_1"/>
<feBlend mode="normal" in="SourceGraphic" in2="effect2_dropShadow_0_1" result="shape"/>
</filter>
<filter id="filter1_bd_0_1" x="82.9629" y="17" width="71.2843" height="75.9878" filterUnits="userSpaceOnUse" color-interpolation-filters="sRGB">
<feFlood flood-opacity="0" result="BackgroundImageFix"/>
<feGaussianBlur in="BackgroundImage" stdDeviation="2"/>
<feComposite in2="SourceAlpha" operator="in" result="effect1_backgroundBlur_0_1"/>
<feColorMatrix in="SourceAlpha" type="matrix" values="0 0 0 0 0 0 0 0 0 0 0 0 0 0 0 0 0 0 127 0" result="hardAlpha"/>
<feOffset dy="4"/>
<feGaussianBlur stdDeviation="2"/>
<feComposite in2="hardAlpha" operator="out"/>
<feColorMatrix type="matrix" values="0 0 0 0 0 0 0 0 0 0 0 0 0 0 0 0 0 0 0.25 0"/>
<feBlend mode="normal" in2="effect1_backgroundBlur_0_1" result="effect2_dropShadow_0_1"/>
<feBlend mode="normal" in="SourceGraphic" in2="effect2_dropShadow_0_1" result="shape"/>
</filter>
<filter id="filter2_bd_0_1" x="82.9629" y="83.6112" width="71.2843" height="75.9878" filterUnits="userSpaceOnUse" color-interpolation-filters="sRGB">
<feFlood flood-opacity="0" result="BackgroundImageFix"/>
<feGaussianBlur in="BackgroundImage" stdDeviation="2"/>
<feComposite in2="SourceAlpha" operator="in" result="effect1_backgroundBlur_0_1"/>
<feColorMatrix in="SourceAlpha" type="matrix" values="0 0 0 0 0 0 0 0 0 0 0 0 0 0 0 0 0 0 127 0" result="hardAlpha"/>
<feOffset dy="4"/>
<feGaussianBlur stdDeviation="2"/>
<feComposite in2="hardAlpha" operator="out"/>
<feColorMatrix type="matrix" values="0 0 0 0 0 0 0 0 0 0 0 0 0 0 0 0 0 0 0.25 0"/>
<feBlend mode="normal" in2="effect1_backgroundBlur_0_1" result="effect2_dropShadow_0_1"/>
<feBlend mode="normal" in="SourceGraphic" in2="effect2_dropShadow_0_1" result="shape"/>
</filter>
<filter id="filter3_bd_0_1" x="16" y="83.9629" width="71.9878" height="75.2843" filterUnits="userSpaceOnUse" color-interpolation-filters="sRGB">
<feFlood flood-opacity="0" result="BackgroundImageFix"/>
<feGaussianBlur in="BackgroundImage" stdDeviation="2"/>
<feComposite in2="SourceAlpha" operator="in" result="effect1_backgroundBlur_0_1"/>
<feColorMatrix in="SourceAlpha" type="matrix" values="0 0 0 0 0 0 0 0 0 0 0 0 0 0 0 0 0 0 127 0" result="hardAlpha"/>
<feOffset dy="4"/>
<feGaussianBlur stdDeviation="2"/>
<feComposite in2="hardAlpha" operator="out"/>
<feColorMatrix type="matrix" values="0 0 0 0 0 0 0 0 0 0 0 0 0 0 0 0 0 0 0.25 0"/>
<feBlend mode="normal" in2="effect1_backgroundBlur_0_1" result="effect2_dropShadow_0_1"/>
<feBlend mode="normal" in="SourceGraphic" in2="effect2_dropShadow_0_1" result="shape"/>
</filter>
<filter id="filter4_bd_0_1" x="41.2071" y="41.5" width="50.7193" height="54.7193" filterUnits="userSpaceOnUse" color-interpolation-filters="sRGB">
<feFlood flood-opacity="0" result="BackgroundImageFix"/>
<feGaussianBlur in="BackgroundImage" stdDeviation="2"/>
<feComposite in2="SourceAlpha" operator="in" result="effect1_backgroundBlur_0_1"/>
<feColorMatrix in="SourceAlpha" type="matrix" values="0 0 0 0 0 0 0 0 0 0 0 0 0 0 0 0 0 0 127 0" result="hardAlpha"/>
<feOffset dy="4"/>
<feGaussianBlur stdDeviation="2"/>
<feComposite in2="hardAlpha" operator="out"/>
<feColorMatrix type="matrix" values="0 0 0 0 0 0 0 0 0 0 0 0 0 0 0 0 0 0 0.25 0"/>
<feBlend mode="normal" in2="effect1_backgroundBlur_0_1" result="effect2_dropShadow_0_1"/>
<feBlend mode="normal" in="SourceGraphic" in2="effect2_dropShadow_0_1" result="shape"/>
</filter>
<filter id="filter5_bd_0_1" x="81.0682" y="42.2061" width="48.4689" height="56.8544" filterUnits="userSpaceOnUse" color-interpolation-filters="sRGB">
<feFlood flood-opacity="0" result="BackgroundImageFix"/>
<feGaussianBlur in="BackgroundImage" stdDeviation="2"/>
<feComposite in2="SourceAlpha" operator="in" result="effect1_backgroundBlur_0_1"/>
<feColorMatrix in="SourceAlpha" type="matrix" values="0 0 0 0 0 0 0 0 0 0 0 0 0 0 0 0 0 0 127 0" result="hardAlpha"/>
<feOffset dy="4"/>
<feGaussianBlur stdDeviation="2"/>
<feComposite in2="hardAlpha" operator="out"/>
<feColorMatrix type="matrix" values="0 0 0 0 0 0 0 0 0 0 0 0 0 0 0 0 0 0 0.25 0"/>
<feBlend mode="normal" in2="effect1_backgroundBlur_0_1" result="effect2_dropShadow_0_1"/>
<feBlend mode="normal" in="SourceGraphic" in2="effect2_dropShadow_0_1" result="shape"/>
</filter>
<filter id="filter6_bd_0_1" x="83.203" y="77.6113" width="47.6231" height="57.6011" filterUnits="userSpaceOnUse" color-interpolation-filters="sRGB">
<feFlood flood-opacity="0" result="BackgroundImageFix"/>
<feGaussianBlur in="BackgroundImage" stdDeviation="2"/>
<feComposite in2="SourceAlpha" operator="in" result="effect1_backgroundBlur_0_1"/>
<feColorMatrix in="SourceAlpha" type="matrix" values="0 0 0 0 0 0 0 0 0 0 0 0 0 0 0 0 0 0 127 0" result="hardAlpha"/>
<feOffset dy="4"/>
<feGaussianBlur stdDeviation="2"/>
<feComposite in2="hardAlpha" operator="out"/>
<feColorMatrix type="matrix" values="0 0 0 0 0 0 0 0 0 0 0 0 0 0 0 0 0 0 0.25 0"/>
<feBlend mode="normal" in2="effect1_backgroundBlur_0_1" result="effect2_dropShadow_0_1"/>
<feBlend mode="normal" in="SourceGraphic" in2="effect2_dropShadow_0_1" result="shape"/>
</filter>
<filter id="filter7_bd_0_1" x="40.5135" y="81.1971" width="51.5094" height="53.9139" filterUnits="userSpaceOnUse" color-interpolation-filters="sRGB">
<feFlood flood-opacity="0" result="BackgroundImageFix"/>
<feGaussianBlur in="BackgroundImage" stdDeviation="2"/>
<feComposite in2="SourceAlpha" operator="in" result="effect1_backgroundBlur_0_1"/>
<feColorMatrix in="SourceAlpha" type="matrix" values="0 0 0 0 0 0 0 0 0 0 0 0 0 0 0 0 0 0 127 0" result="hardAlpha"/>
<feOffset dy="4"/>
<feGaussianBlur stdDeviation="2"/>
<feComposite in2="hardAlpha" operator="out"/>
<feColorMatrix type="matrix" values="0 0 0 0 0 0 0 0 0 0 0 0 0 0 0 0 0 0 0.25 0"/>
<feBlend mode="normal" in2="effect1_backgroundBlur_0_1" result="effect2_dropShadow_0_1"/>
<feBlend mode="normal" in="SourceGraphic" in2="effect2_dropShadow_0_1" result="shape"/>
</filter>
<filter id="filter8_bd_0_1" x="55" y="56" width="58" height="62" filterUnits="userSpaceOnUse" color-interpolation-filters="sRGB">
<feFlood flood-opacity="0" result="BackgroundImageFix"/>
<feGaussianBlur in="BackgroundImage" stdDeviation="2"/>
<feComposite in2="SourceAlpha" operator="in" result="effect1_backgroundBlur_0_1"/>
<feColorMatrix in="SourceAlpha" type="matrix" values="0 0 0 0 0 0 0 0 0 0 0 0 0 0 0 0 0 0 127 0" result="hardAlpha"/>
<feOffset dy="4"/>
<feGaussianBlur stdDeviation="2"/>
<feComposite in2="hardAlpha" operator="out"/>
<feColorMatrix type="matrix" values="0 0 0 0 0 0 0 0 0 0 0 0 0 0 0 0 0 0 0.25 0"/>
<feBlend mode="normal" in2="effect1_backgroundBlur_0_1" result="effect2_dropShadow_0_1"/>
<feBlend mode="normal" in="SourceGraphic" in2="effect2_dropShadow_0_1" result="shape"/>
</filter>
<filter id="filter9_bd_0_1" x="62.3428" y="62.5508" width="44.2061" height="48.2061" filterUnits="userSpaceOnUse" color-interpolation-filters="sRGB">
<feFlood flood-opacity="0" result="BackgroundImageFix"/>
<feGaussianBlur in="BackgroundImage" stdDeviation="2"/>
<feComposite in2="SourceAlpha" operator="in" result="effect1_backgroundBlur_0_1"/>
<feColorMatrix in="SourceAlpha" type="matrix" values="0 0 0 0 0 0 0 0 0 0 0 0 0 0 0 0 0 0 127 0" result="hardAlpha"/>
<feOffset dy="4"/>
<feGaussianBlur stdDeviation="2"/>
<feComposite in2="hardAlpha" operator="out"/>
<feColorMatrix type="matrix" values="0 0 0 0 0 0 0 0 0 0 0 0 0 0 0 0 0 0 0.25 0"/>
<feBlend mode="normal" in2="effect1_backgroundBlur_0_1" result="effect2_dropShadow_0_1"/>
<feBlend mode="normal" in="SourceGraphic" in2="effect2_dropShadow_0_1" result="shape"/>
</filter>
</defs>
</svg>
